<?xml version="1.0" encoding="UTF-8"?>
<!DOCTYPE svg PUBLIC "-//W3C//DTD SVG 1.1//EN" "http://www.w3.org/Graphics/SVG/1.1/DTD/svg11.dtd">
<!-- Creator: CorelDRAW 2019 (64-Bit) -->
<svg xmlns="http://www.w3.org/2000/svg" xml:space="preserve" width="237.251mm" height="40.7157mm" version="1.1" style="shape-rendering:geometricPrecision; text-rendering:geometricPrecision; image-rendering:optimizeQuality; fill-rule:evenodd; clip-rule:evenodd"
viewBox="0 0 23725.04 4071.56"
 xmlns:xlink="http://www.w3.org/1999/xlink">
 <defs>
  <style type="text/css">
   <![CDATA[
    .fil0 {fill:#480000}
    .fil2 {fill:#FFA20C;fill-rule:nonzero}
    .fil1 {fill:#FFC80E;fill-rule:nonzero}
   ]]>
  </style>
 </defs>
 <g id="Layer_x0020_1">
  <metadata id="CorelCorpID_0Corel-Layer"/>
  <g id="_1766697498560">
   <path class="fil0" d="M19920.79 874.17c72.68,-108.27 158,-210.82 256.64,-306.8 405.83,-394.95 918.62,-567.37 1481.02,-567.37 562.25,0 1074.55,172.35 1479.81,567.74 406.98,397.07 586.79,905.56 586.79,1470.42 0,567.77 -184.52,1077.07 -598.13,1471.38 -407.32,388.32 -914.91,562.03 -1474.79,562.03 -559.13,0 -1066.55,-173.42 -1471.57,-563.47 -28.25,-27.22 -55.42,-54.98 -81.52,-83.25 -57.3,154.11 -168.45,283.78 -304.04,388.07 -171.79,132.11 -371.66,227.85 -592.33,227.85 -263.18,0 -472.07,-149.06 -624.57,-352.8l-72.71 -97.16c-130.11,293.56 -427.15,452.32 -799.85,452.32 -245.46,0 -457.98,-68.66 -611.65,-199.3 -132.59,127.08 -319.19,199.3 -546.08,199.3l-1110.79 0c-255.36,0 -475.08,-74.32 -629.97,-215.4 -154.93,141.03 -374.58,215.4 -629.67,215.4 -347.36,0 -628.71,-137.52 -770.77,-393.53 -142.18,255.91 -423.59,393.53 -770.61,393.53 -474.29,0 -825.53,-256.35 -867.12,-720.75 -41.59,464.4 -392.83,720.75 -867.12,720.75 -282.48,0 -536.35,-105.2 -719.12,-322.7l-305.67 -363.75c-55.57,442.41 -401.32,686.45 -863.42,686.45 -261.18,0 -485.07,-77.73 -640.47,-225.16 -166.11,158.82 -390.86,225.16 -627.87,225.16 -368.04,0 -633.43,-221.33 -767.02,-550.66l-371.6 0c-133.26,327.09 -394.61,550.66 -761.44,550.66 -263.28,0 -509.2,-83.39 -678.94,-282.21 -116.23,172.6 -305.09,282.21 -562.52,282.21l-1175.58 0c-505.52,0 -871.27,-291.23 -871.27,-815.17l0 -443.24c-221.52,145.59 -479.2,217.13 -760.48,217.13l-53.91 0 0 226.11c0,523.57 -366.12,815.17 -871.24,815.17 -505.52,0 -871.27,-291.23 -871.27,-815.17l0 -2310.07c0,-524.25 365.21,-815.95 871.27,-815.95l1036.55 0c309.43,0 583.1,102.84 808.04,295.34 153.57,-198.89 407.37,-304.83 712.31,-304.83 505.66,0 871.25,292.07 871.25,815.95l0 1573.17 304.33 0c192.86,0 347.17,61.49 461.29,164.88l912.5 -1997.35c154.15,-337.4 435.17,-556.64 813.36,-556.64 378.09,0 657.67,219.21 812.27,555.94l539.17 1174.36 0 -914.35c0,-522.78 364.9,-812.75 868.66,-815.95 301.78,-1.9 576.72,104.62 752.75,353.02l275.38 328.44c57.71,-439.13 402.1,-681.46 862.69,-681.46 474.76,0 825.56,256.75 867.12,721.41 41.54,-464.66 392.36,-721.41 867.12,-721.41 347.29,0 628.53,137.79 770.61,393.81 141.96,-256.14 423.12,-393.81 770.77,-393.81 255.26,0 474.81,74.42 629.67,215.5 154.82,-141.13 374.44,-215.5 629.97,-215.5l1110.79 0c226.84,0 413.37,72.37 545.91,199.53 153.62,-130.77 366.12,-199.53 611.82,-199.53l1036.54 0c378.15,0 704.83,152.62 951.74,438.56 92.01,106.55 168.69,221.16 226.97,343.17zm1987.9 860c-67,-73.88 -151.71,-93.59 -249.47,-93.59 -100.77,0 -184.33,21.59 -253.43,96.91 -78.01,85 -101.47,187.86 -101.47,301.45 0,111.35 22.49,213.31 99.64,296.31 69.34,74.59 154.37,94.94 254.48,94.94 99.47,0 182.4,-20.25 250.64,-94.86 77.47,-84.69 101.11,-186.4 101.11,-299.53 0,-113.84 -23.93,-216.11 -101.5,-301.63z"/>
   <path class="fil1" d="M1796.41 2588.82c295.45,0 534.86,-104.3 720.5,-312.07 184.89,-208.57 281.26,-452.71 287.58,-733.16 7.12,-279.7 -75.83,-521.45 -249.65,-724.48 -173.81,-203.06 -389.48,-304.16 -647.03,-304.16l-1036.55 0c-305.75,0 -458.25,134.3 -458.25,402.92l0 2310.07c0,267.85 152.5,402.15 458.25,402.15 304.94,0 458.22,-134.3 458.22,-402.15l0 -639.13 466.93 0zm-203.06 -1453.69c259.14,0 388.7,119.3 388.7,356.31 0,237.79 -129.56,357.09 -388.7,357.09l-263.87 0 0 -713.4 263.87 0zm3010.38 2494.96l-1175.58 0c-305.75,0 -458.25,-134.3 -458.25,-402.15l0 -2319.56c0,-268.62 152.5,-402.92 458.25,-402.92 304.94,0 458.22,134.3 458.22,402.92l0 1986.18 717.36 0c191.21,0 286.8,122.45 286.8,368.17 0,244.91 -95.59,367.36 -286.8,367.36zm2387.81 -1290.95l-198.3 -541.96 -199.09 541.96 397.39 0zm-670.75 740.28l-88.49 236.24c-78.22,210.13 -207.79,314.43 -387.12,314.43 -180.13,0 -308.92,-54.52 -386.34,-165.13 -78.22,-110.59 -116.93,-209.36 -116.93,-297.85 0,-87.69 18.98,-173.79 57.68,-259.14l953.6 -2087.28c95.59,-210.15 241.74,-315.23 437.68,-315.23 195.94,0 341.29,105.08 436.9,315.23l958.33 2087.28c40.29,86.91 60.02,173.82 60.02,261.53 0,88.47 -37.9,187.23 -112.95,296.26 -75.86,109.81 -205.43,164.33 -387.93,164.33 -182.5,0 -313.65,-104.3 -392.66,-314.43l-87.68 -236.24 -944.11 0zm4122.77 -1180.33l0 -990.72c0,-268.62 153.27,-402.92 458.22,-402.92 305.75,0 458.22,134.3 458.22,402.92l0 2319.56c0,267.85 -152.47,402.15 -458.22,402.15 -169.87,0 -304.17,-58.47 -402.93,-175.4l-1027.06 -1222.19 0 995.44c0,267.85 -153.27,402.15 -458.22,402.15 -305.75,0 -458.24,-134.3 -458.24,-402.15l0 -2319.56c0,-267.04 152.49,-401.34 458.24,-402.92 195.92,-1.59 335.75,61.61 421.1,190.4l1008.89 1203.24zm3733.83 -1393.64c304.95,0 458.23,134.3 458.23,402.92l0 2319.56c0,267.85 -153.28,402.15 -458.23,402.15 -305.75,0 -458.22,-134.3 -458.22,-402.15l0 -796.36 -624.94 0 0 796.36c0,267.85 -153.27,402.15 -458.22,402.15 -305.75,0 -458.24,-134.3 -458.24,-402.15l0 -2319.56c0,-268.62 152.49,-402.92 458.24,-402.92 304.95,0 458.22,134.3 458.22,402.92l0 782.14 624.94 0 0 -782.14c0,-268.62 152.47,-402.92 458.22,-402.92zm2370.42 3124.63c237.82,0 356.32,-122.45 356.32,-367.36 0,-245.72 -118.5,-368.17 -356.32,-368.17l-652.57 0 0 -462.98 560.15 0c237.02,0 356.32,-123.25 356.32,-370.53 0,-246.5 -119.3,-370.54 -356.32,-370.54l-560.15 0 0 -448.73 652.57 0c237.82,0 356.32,-122.47 356.32,-368.17 0,-244.91 -118.5,-368.16 -356.32,-368.16l-1110.79 0c-305.75,0 -458.25,134.3 -458.25,402.92l0 2319.56c0,267.85 152.5,402.15 458.25,402.15l1110.79 0zm2620.09 -1328.08l458.22 601.23c67.96,90.08 101.91,185.67 101.91,287.58 0,101.91 -61.61,199.89 -184.86,294.7 -123.25,94.79 -237.01,142.2 -340.51,142.2 -103.49,0 -201.45,-62.42 -293.89,-187.25l-745.02 -995.45 0 782.92c0,267.85 -153.28,402.15 -458.22,402.15 -305.75,0 -458.25,-134.3 -458.25,-402.15l0 -2319.56c0,-268.62 152.5,-402.92 458.25,-402.92l1036.54 0c255.97,0 469.28,98.76 639.14,295.48 169.86,196.72 254.4,407.65 254.4,632.81 0,402.93 -155.64,692.09 -467.71,868.27zm-1004.15 -1166.89l0 713.4 263.87 0c259.13,0 388.7,-119.3 388.7,-357.09 0,-237.01 -129.57,-356.31 -388.7,-356.31l-263.87 0zm5148.25 903.02c0,482.71 -156.45,873.79 -470.1,1172.44 -312.85,298.62 -709.46,447.95 -1189.8,447.95 -479.57,0 -874.59,-149.33 -1185.07,-447.95 -309.7,-298.65 -464.56,-689.73 -464.56,-1172.44 0,-483.51 154.06,-874.58 462.98,-1174.79 308.11,-300.24 706.3,-450.35 1192.97,-450.35 486.66,0 884.07,150.11 1191.38,450.35 308.14,300.21 462.2,691.28 462.2,1174.79zm-1097.38 -581.47c-138.28,-152.49 -323.92,-229.13 -555.42,-229.13 -231.48,0 -417.15,77.44 -557.77,230.69 -140.64,153.28 -210.16,346.85 -210.16,580.69 0,233.87 69.52,426.64 210.16,577.53 140.62,151.69 326.29,226.74 556.99,226.74 230.69,0 415.56,-75.83 555.39,-229.11 139.84,-152.47 209.38,-345.24 209.38,-578.3 0,-233.06 -69.54,-425.86 -208.57,-579.11z"/>
   <path class="fil2" d="M1796.41 2588.82c295.45,0 534.86,-104.3 720.5,-312.07 45.44,-51.27 85.54,-104.69 120.28,-160.27l-2224.17 0 0 1111.47c0,267.85 152.5,402.15 458.25,402.15 304.94,0 458.22,-134.3 458.22,-402.15l0 -639.13 466.93 0zm1173.5 -472.34l916.47 0 0 778.09 717.36 0c191.21,0 286.8,122.45 286.8,368.17 0,244.91 -95.59,367.36 -286.8,367.36l-1175.58 0c-305.75,0 -458.25,-134.3 -458.25,-402.15l0 -1111.47zm2791.3 0l914.74 0 -81.79 222.67 397.39 0 -81.47 -222.67 912.61 0 363.42 791.5c40.29,86.91 60.02,173.82 60.02,261.53 0,88.47 -37.9,187.23 -112.95,296.26 -75.86,109.81 -205.43,164.33 -387.93,164.33 -182.5,0 -313.65,-104.3 -392.66,-314.43l-87.68 -236.24 -944.11 0 -88.49 236.24c-78.22,210.13 -207.79,314.43 -387.12,314.43 -180.13,0 -308.92,-54.52 -386.34,-165.13 -78.22,-110.59 -116.93,-209.36 -116.93,-297.85 0,-87.69 18.98,-173.79 57.68,-259.14l361.61 -791.5zm2794.13 0l2804.66 0 0 1111.47c0,267.85 -152.47,402.15 -458.22,402.15 -169.87,0 -304.17,-58.47 -402.93,-175.4l-1027.06 -1222.19 0 995.44c0,267.85 -153.27,402.15 -458.22,402.15 -305.75,0 -458.24,-134.3 -458.24,-402.15l0 -1111.47zm3622.44 0l2457.84 0 0 1111.47c0,267.85 -153.28,402.15 -458.23,402.15 -305.75,0 -458.22,-134.3 -458.22,-402.15l0 -796.36 -624.94 0 0 796.36c0,267.85 -153.27,402.15 -458.22,402.15 -305.75,0 -458.24,-134.3 -458.24,-402.15l0 -1111.47zm2801 0l1830.75 0c-17.09,210.28 -135.54,315.11 -354.14,315.11l-560.15 0 0 462.98 652.57 0c237.82,0 356.32,122.45 356.32,368.17 0,244.91 -118.5,367.36 -356.32,367.36l-1110.79 0c-305.75,0 -458.25,-134.3 -458.25,-402.15l0 -1111.47zm2268.51 0l2156.04 0c-64.88,71.68 -143.32,133.54 -235.43,185.54l458.22 601.23c67.96,90.08 101.91,185.67 101.91,287.58 0,101.91 -61.61,199.89 -184.86,294.7 -123.25,94.79 -237.01,142.2 -340.51,142.2 -103.49,0 -201.45,-62.42 -293.89,-187.25l-745.02 -995.45 0 782.92c0,267.85 -153.28,402.15 -458.22,402.15 -305.75,0 -458.25,-134.3 -458.25,-402.15l0 -1111.47zm2756.61 0l890.05 0c13.93,199.25 82.72,366.09 207.5,499.98 140.62,151.69 326.29,226.74 556.99,226.74 230.69,0 415.56,-75.83 555.39,-229.11 123.38,-134.52 192.01,-300.38 206.48,-497.61l890.29 0c-16.17,446.83 -172.18,811.77 -468.68,1094.11 -312.85,298.62 -709.46,447.95 -1189.8,447.95 -479.57,0 -874.59,-149.33 -1185.07,-447.95 -292.77,-282.34 -447.15,-647.28 -463.15,-1094.11z"/>
  </g>
 </g>
</svg>
